<svg width="413" height="73" xmlns="http://www.w3.org/2000/svg" xmlns:xlink="http://www.w3.org/1999/xlink" xml:space="preserve" overflow="hidden"><defs><clipPath id="clip0"><rect x="0" y="0" width="413" height="73"/></clipPath><clipPath id="clip1"><rect x="0" y="0" width="413" height="73"/></clipPath></defs><g clip-path="url(#clip0)"><g clip-path="url(#clip1)"><path d="M0 0C5.79216-0.122222 11.5835-0.211581 17.3767-0.270946 19.346-0.295702 21.3151-0.329325 23.284-0.3721 26.12-0.432152 28.9547-0.459959 31.7911-0.481683 32.6668-0.507141 33.5425-0.532598 34.4449-0.558828 38.7215-0.56075 41.5363-0.37385 44.9328 2.37301 49.0558 6.73614 48.6056 10.0238 48.5537 15.857 48.3155 20.1295 47.8057 24.267 47.1047 28.4848 46.997 29.176 46.8892 29.8673 46.7781 30.5794 45.6782 36.6587 43.522 41.4687 38.9046 45.7483 35.1973 48.2198 32.424 48.4572 28.0724 48.4342 27.0138 48.431 25.9552 48.4278 24.8645 48.4245 23.76 48.4163 22.6556 48.408 21.5177 48.3995 20.4018 48.3951 19.286 48.3906 18.1364 48.386 15.3791 48.3743 12.622 48.3582 9.86487 48.3378 9.74279 49.5141 9.62071 50.6904 9.49493 51.9023 9.29133 53.4477 9.08571 54.993 8.87838 56.538 8.80336 57.3131 8.72832 58.0882 8.65102 58.8867 8.31536 61.2068 7.96497 63.0126 6.90541 65.1081 4.40715 66.7366 1.89454 67.3942-0.986486 68.0676-2.5735 68.6474-2.5735 68.6474-4.19257 69.239-6.90541 70.0405-6.90541 70.0405-10.8514 70.0405-10.2074 65.5522-9.55886 61.0646-8.90655 56.5775-8.68638 55.0588-8.46732 53.5399-8.24954 52.0208-7.61293 47.5834-6.95509 43.1501-6.26438 38.7208-6.03187 37.2262-5.80366 35.7308-5.57948 34.2349-5.24845 32.058-4.89351 29.8862-4.53167 27.7142-4.32884 26.4495-4.12602 25.1848-3.91704 23.8819-2.84571 20.3402-1.89781 19.2339 1.17145 17.2635 3.31013 16.3078 3.31013 16.3078 4.93243 15.7838 4.13892 15.153 3.34542 14.5223 2.52787 13.8725 0 11.8378 0 11.8378-0.986486 10.8514-1.13101 7.02154-1.02498 3.68504 0 0ZM14.7973 9.86487C14.1346 13.8922 13.4789 17.9206 12.8243 21.9493 12.542 23.6641 12.542 23.6641 12.254 25.4136 12.076 26.5136 11.8979 27.6135 11.7145 28.7468 11.4665 30.2656 11.4665 30.2656 11.2136 31.8152 10.7642 34.7229 10.7642 34.7229 10.8514 38.473 12.8853 38.5534 14.9202 38.6105 16.9552 38.6579 18.6548 38.7094 18.6548 38.7094 20.3887 38.762 23.9987 38.4446 25.7776 37.7419 28.6081 35.5135 29.6213 32.7405 30.1313 30.5109 30.5811 27.6216 30.7972 26.3996 31.0135 25.1775 31.2362 23.9184 32.7703 17.2846 32.7703 17.2846 31.5907 10.913 28.4988 9.28948 25.4086 9.55617 22.011 9.6799 21.3186 9.69326 20.6262 9.7066 19.9127 9.72036 18.2073 9.75517 16.5022 9.80824 14.7973 9.86487Z" fill="#1B5CB0" fill-rule="nonzero" fill-opacity="1" transform="matrix(1.01125 0 0 1 136.669 2.95946)"/><path d="M0 0C5.53419 0 11.0684 0 16.7703 0 16.4142 2.29277 16.0581 4.58554 15.6913 6.94779 15.3477 9.17761 15.0052 11.4076 14.6629 13.6377 14.425 15.1831 14.1858 16.7283 13.9452 18.2734 13.5989 20.4988 13.2574 22.7249 12.9169 24.9512 12.8089 25.6378 12.701 26.3244 12.5898 27.0318 12.0566 30.5492 11.7173 33.9283 11.8378 37.4865 13.608 37.456 13.608 37.456 15.4139 37.4248 18.9235 37.3644 22.197 37.845 25.6486 38.473 25.7568 37.4798 25.8648 36.4867 25.9762 35.4634 26.8726 27.4371 27.9091 19.4466 29.163 11.4679 29.288 10.6651 29.4131 9.8623 29.5418 9.03517 30.0404 5.92516 30.5697 2.99353 31.5676 0 37.1018 0 42.6359 0 48.3378 0 47.5351 5.45768 46.7282 10.9147 45.9174 16.3712 45.6427 18.2243 45.369 20.0774 45.0966 21.9308 44.7029 24.6079 44.305 27.2843 43.9063 29.9607 43.7274 31.1866 43.7274 31.1866 43.5449 32.4374 42.7412 37.7977 41.6901 43.0625 40.4459 48.3378 35.0752 48.4602 29.7054 48.5494 24.3337 48.6088 22.508 48.6335 20.6823 48.6671 18.8569 48.7099 16.2267 48.77 13.5977 48.7978 10.967 48.8195 9.75045 48.8577 9.75045 48.8577 8.50938 48.8967 4.45381 48.8987 1.79187 48.6273-1.45492 46.073-5.03241 42.2419-5.7549 39.7187-5.91892 34.527-5.45663 28.902-4.57421 23.3808-3.63767 17.8184-3.39796 16.3074-3.15969 14.7962-2.92285 13.2848-1.17872 2.35745-1.17872 2.35745 0 0Z" fill="#1B5CB0" fill-rule="nonzero" fill-opacity="1" transform="matrix(1.01125 0 0 1 193.531 2.95946)"/><path d="M0 0C5.3888-0.0732837 10.7773-0.126928 16.1664-0.162568 17.9988-0.177428 19.8312-0.197608 21.6634-0.22326 24.3008-0.259254 26.9378-0.27597 29.5754-0.28901 30.7995-0.311922 30.7995-0.311922 32.0484-0.335297 36.648-0.336632 39.6906-0.0601899 43.4054 2.95946 49.0594 12.0058 44.9564 24.1657 43.4054 34.0954 43.2299 35.2533 43.0544 36.4111 42.8736 37.604 42.7032 38.7059 42.5329 39.8078 42.3573 40.943 42.1264 42.4358 42.1264 42.4358 41.891 43.9586 41.4324 46.3649 41.4324 46.3649 40.4459 48.3378 35.2373 48.3378 30.0287 48.3378 24.6622 48.3378 25.1622 39.8378 26.1709 31.6069 27.6054 23.2197 28.2513 19.3798 28.7895 15.7497 28.6081 11.8378 25.9428 10.5052 23.5592 10.5173 20.5929 10.2965 18.9715 10.1725 18.9715 10.1725 17.3175 10.046 16.4858 9.9862 15.6542 9.92642 14.7973 9.86487 14.6351 11.3374 14.6351 11.3374 14.4698 12.8397 13.5451 21.0559 12.4938 29.2457 11.2829 37.4248 11.158 38.2829 11.0329 39.1409 10.9041 40.0249 10.7837 40.8239 10.6633 41.6227 10.5392 42.4459 10.433 43.1554 10.3267 43.8649 10.2172 44.5959 9.86487 46.3649 9.86487 46.3649 8.87838 48.3378 3.34419 48.3378-2.19 48.3378-7.89189 48.3378-6.92986 41.9289-5.96442 35.5206-4.99577 29.1127-4.66664 26.9321-4.33845 24.7513-4.01121 22.5704-3.54107 19.4382-3.06756 16.3066-2.59338 13.175-2.44742 12.1977-2.30147 11.2203-2.15109 10.2134-1.94382 8.85098-1.94382 8.85098-1.73237 7.46102-1.61189 6.66146-1.49141 5.86189-1.36727 5.03808-0.986486 2.95946-0.986486 2.95946 0 0Z" fill="#1B5CB0" fill-rule="nonzero" fill-opacity="1" transform="matrix(1.01125 0 0 1 28.93 2.95946)"/><path d="M0 0C0.894948 0.00139583 1.7899 0.00279166 2.71196 0.00422978 5.5767 0.00976157 8.44135 0.0221457 11.306 0.0346811 13.2457 0.0396275 15.1852 0.0441288 17.1248 0.0481683 21.8851 0.0590582 26.6454 0.0760945 31.4057 0.0963365 31.2671 1.55602 31.1221 3.0151 30.9741 4.47387 30.894 5.28645 30.8139 6.09903 30.7313 6.93623 30.4192 8.97472 30.4192 8.97472 29.4327 9.96124 27.2796 10.0816 25.1229 10.1385 22.9666 10.1693 21.6346 10.197 20.3026 10.2252 18.9706 10.254 16.8642 10.2948 14.758 10.3312 12.6514 10.3571 10.6226 10.3843 8.59474 10.4296 6.5663 10.4776 5.34823 10.4971 4.13015 10.5166 2.87516 10.5369-0.117639 10.7234-0.117639 10.7234-2.12374 12.2101-3.35181 13.8956-3.35181 13.8956-2.81303 16.0651-2.58922 16.6551-2.36541 17.2452-2.13482 17.8531-1.1874 17.8746-1.1874 17.8746-0.220852 17.8966 2.65611 17.9704 5.53195 18.0656 8.40826 18.1614 9.40205 18.1836 10.3958 18.2059 11.4198 18.2288 20.7077 18.566 20.7077 18.566 24.5003 21.7991 27.4726 26.2061 28.3117 30.3909 27.4597 35.6099 25.7763 41.3377 22.9372 44.4302 17.8745 47.4355 14.0165 49.146 10.3789 49.0447 6.21949 48.9158 5.35482 48.9089 4.49013 48.9019 3.59926 48.8947 0.864932 48.8673-1.86732 48.8054-4.60103 48.7425-6.46608 48.7176-8.33116 48.6951-10.1962 48.675-14.7441 48.621-19.2904 48.5359-23.8376 48.4342-23.9609 41.8987-23.9609 41.8987-22.8511 38.5694-21.5821 38.54-21.5821 38.54-20.2875 38.5101-17.1398 38.4329-13.9924 38.3474-10.8451 38.2562-9.48458 38.2186-8.12398 38.1841-6.76331 38.1532-4.80408 38.108-2.84518 38.0498-0.886297 37.9913 0.291563 37.9603 1.46942 37.9293 2.68298 37.8974 5.56741 37.6022 7.26371 37.1146 9.70302 35.6099 9.70302 33.9822 9.70302 32.3545 9.70302 30.6775 9.10646 30.6631 8.5099 30.6487 7.89527 30.6339 5.16786 30.56 2.44157 30.4647-0.285156 30.3692-1.22363 30.3469-2.1621 30.3246-3.12902 30.3017-9.27977 30.0668-14.0285 29.4349-18.7202 25.0668-21.1392 20.3559-21.4394 15.8119-19.8916 10.8244-16.0567 1.7812-8.97864-0.0522744 0 0Z" fill="#1B5CB0" fill-rule="nonzero" fill-opacity="1" transform="matrix(1.01125 0 0 1 99.9221 2.86312)"/><path d="M0 0C3.25541 0 6.51081 0 9.86487 0 9.86487 0.976622 9.86487 1.95324 9.86487 2.95946 13.7714 2.95946 17.6778 2.95946 21.7027 2.95946 23.8106 7.17529 24.0047 10.2292 23.984 14.7973 23.9998 15.4993 24.0157 16.2012 24.0321 16.9244 24.0349 19.881 23.8094 22.3532 22.7123 25.1091 19.4938 27.5697 16.0927 27.3038 12.1461 27.375 11.3596 27.4042 10.5731 27.4335 9.76274 27.4636 7.82435 27.5332 5.88514 27.5797 3.94595 27.6216 4.92257 28.9238 5.89919 30.2259 6.90541 31.5676 9.34005 30.4314 10.8985 29.5474 12.8243 27.6216 15.3908 27.429 15.3908 27.429 18.3733 27.4983 19.8573 27.525 19.8573 27.525 21.3713 27.5523 22.1317 27.5752 22.8922 27.598 23.6757 27.6216 22.2849 30.6191 20.6287 33.14 18.6199 35.7601 18.0884 36.457 17.5568 37.1538 17.0092 37.8718 16.6048 38.3957 16.2004 38.9197 15.7838 39.4595 16.225 39.9007 16.6663 40.342 17.121 40.7966 20.6211 44.2968 24.1214 47.797 27.6216 51.2973 22.9318 52.3525 18.4013 52.9291 13.8108 51.2973 7.71073 47.0084 2.85882 41.136-1.97297 35.5135-1.97297 38.7689-1.97297 42.0243-1.97297 45.3784-0.0197297 45.7039 1.93351 46.0295 3.94595 46.3649 3.62041 47.9926 3.29486 49.6203 2.95946 51.2973 0.699012 51.3504-1.56179 51.3887-3.82264 51.4206-5.08156 51.4435-6.34048 51.4664-7.63757 51.49-10.8514 51.2973-10.8514 51.2973-12.8243 49.3243-13.0616 47.3269-13.0616 47.3269-13.0484 44.8442-13.0482 43.9161-13.048 42.9879-13.0479 42.0317-13.0377 41.0278-13.0274 40.0237-13.017 38.9893-13.0142 37.9631-13.0115 36.9367-13.0085 35.8793-12.9975 32.5922-12.9727 29.3056-12.9476 26.0186-12.9378 23.7939-12.9287 21.5691-12.9207 19.3444-12.8989 13.8826-12.8648 8.42109-12.8243 2.95946-8.5923 2.95946-4.36027 2.95946 0 2.95946 0 1.98284 0 1.00622 0 0ZM-2.95946 7.89189C-2.95946 9.19405-2.95946 10.4962-2.95946 11.8378 1.92365 11.8378 6.80676 11.8378 11.8378 11.8378 11.1868 13.7911 10.5357 15.7443 9.86487 17.7568 5.63284 17.7568 1.40081 17.7568-2.95946 17.7568-2.95946 18.7334-2.95946 19.71-2.95946 20.7162 2.24919 20.7162 7.45784 20.7162 12.8243 20.7162 12.8446 18.7833 12.8651 16.8504 12.886 14.859 12.8974 13.7717 12.9089 12.6844 12.9207 11.5643 13.1327 8.96274 13.1327 8.96274 11.8378 7.89189 9.34154 7.81974 6.8728 7.80066 4.37753 7.83024 3.67622 7.83469 2.97491 7.83913 2.25235 7.84372 0.515045 7.85538-1.22222 7.87308-2.95946 7.89189Z" fill="#1B5CB0" fill-rule="nonzero" fill-opacity="1" transform="matrix(1.01125 0 0 1 326.21 0)"/><path d="M0 0C1.85215 0.0333806 1.85215 0.0333806 3.74171 0.0674356 6.77048 0.125236 9.79678 0.206122 12.8243 0.308277 11.4356 3.77865 9.97032 7.05777 7.89189 10.1731 4.74361 11.2136 4.74361 11.2136 1.41807 11.0363-3.12187 10.7294-3.12187 10.7294-7.00464 12.6972-9.47539 15.873-9.75419 18.3535-10.308 22.327-10.4096 23.0174-10.5111 23.7078-10.6158 24.4191-10.9359 26.6151-11.2334 28.8134-11.5296 31.0127-11.8407 33.2182-12.1565 35.423-12.4751 37.6274-12.761 39.6217-13.0351 41.6178-13.3087 43.6139-13.8108 46.6731-13.8108 46.6731-14.7973 48.6461-20.0059 48.6461-25.2146 48.6461-30.5811 48.6461-30.159 40.2036-29.1208 31.9602-27.8066 23.614-27.6556 22.5942-27.5045 21.5743-27.349 20.5236-26.1231 13.0275-24.6776 7.1751-18.3733 2.36217-12.6495-0.880666-6.38219-0.21903 0 0Z" fill="#1B5CB0" fill-rule="nonzero" fill-opacity="1" transform="matrix(1.01125 0 0 1 271.343 2.65118)"/><path d="M0 0C2.27878 0 4.55757 0 6.90541 0 6.90541 0.976622 6.90541 1.95324 6.90541 2.95946 9.18419 2.95946 11.463 2.95946 13.8108 2.95946 13.8108 4.58716 13.8108 6.21487 13.8108 7.89189 11.532 7.89189 9.25324 7.89189 6.90541 7.89189 6.90541 8.86851 6.90541 9.84513 6.90541 10.8514 7.67856 10.7903 8.45172 10.7293 9.24831 10.6664 10.1029 10.7274 10.9574 10.7884 11.8378 10.8514 13.9778 14.0613 14.0484 14.9295 14.0035 18.6315 13.9972 19.5566 13.9907 20.4817 13.9842 21.4349 13.9677 22.3982 13.9512 23.3614 13.9341 24.3539 13.9252 25.3286 13.9164 26.3033 13.9072 27.3075 13.8839 29.7143 13.8515 32.1205 13.8108 34.527 11.532 34.527 9.25324 34.527 6.90541 34.527 6.90541 35.5037 6.90541 36.4803 6.90541 37.4865 9.18419 37.4865 11.463 37.4865 13.8108 37.4865 13.8108 39.4397 13.8108 41.393 13.8108 43.4054 11.532 43.4054 9.25324 43.4054 6.90541 43.4054 6.90541 45.3587 6.90541 47.3119 6.90541 49.3243 4.29379 50.7652 3.06355 51.2973 0 51.2973 0 48.693 0 46.0886 0 43.4054-2.27878 43.4054-4.55757 43.4054-6.90541 43.4054-6.90541 41.4522-6.90541 39.4989-6.90541 37.4865-4.62662 37.4865-2.34784 37.4865 0 37.4865 0 36.5099 0 35.5332 0 34.527-2.27878 34.527-4.55757 34.527-6.90541 34.527-6.90541 26.7141-6.90541 18.9011-6.90541 10.8514-4.62662 10.8514-2.34784 10.8514 0 10.8514 0 9.87473 0 8.89811 0 7.89189-2.27878 7.89189-4.55757 7.89189-6.90541 7.89189-6.90541 6.26419-6.90541 4.63649-6.90541 2.95946-4.62662 2.95946-2.34784 2.95946 0 2.95946 0 1.98284 0 1.00622 0 0ZM0.986486 15.7838C0.986486 17.0859 0.986486 18.3881 0.986486 19.7297 2.61419 19.7297 4.24189 19.7297 5.91892 19.7297 5.91892 18.4276 5.91892 17.1254 5.91892 15.7838 4.29122 15.7838 2.66351 15.7838 0.986486 15.7838ZM0.986486 25.6486C0.986486 26.6253 0.986486 27.6019 0.986486 28.6081 2.61419 28.6081 4.24189 28.6081 5.91892 28.6081 5.91892 27.6315 5.91892 26.6549 5.91892 25.6486 4.29122 25.6486 2.66351 25.6486 0.986486 25.6486Z" fill="#1B5CB0" fill-rule="nonzero" fill-opacity="1" transform="matrix(1.01125 0 0 1 379.082 0)"/><path d="M0 0C5.53419 0 11.0684 0 16.7703 0 15.9676 5.45768 15.1606 10.9147 14.3498 16.3712 14.0751 18.2243 13.8014 20.0774 13.5291 21.9308 13.1354 24.6079 12.7374 27.2843 12.3388 29.9607 12.2195 30.778 12.1002 31.5953 11.9773 32.4374 11.1729 37.8022 10.1063 43.0533 8.87838 48.3378 3.66973 48.3378-1.53892 48.3378-6.90541 48.3378-5.55476 22.1353-5.55476 22.1353-1.00961 17.9225 1.17145 16.8319 1.17145 16.8319 4.93243 15.7838 4.13892 15.153 3.34542 14.5223 2.52787 13.8725 0 11.8378 0 11.8378-0.986486 10.8514-1.2186 3.6558-1.2186 3.6558 0 0Z" fill="#1B5CB0" fill-rule="nonzero" fill-opacity="1" transform="matrix(1.01125 0 0 1 6.98309 2.95946)"/><path d="M0 0C2.77455-0.0264804 5.54886-0.04613 8.32348-0.0616554 9.11508-0.0699211 9.90669-0.0781868 10.7222-0.0867029 12.7385-0.0952101 14.7547-0.051575 16.7703 0 18.3188 1.54849 17.8899 3.08218 17.9001 5.23276 17.9063 6.13483 17.9126 7.03689 17.9191 7.96629 17.9202 8.94761 17.9213 9.92889 17.9225 10.9399 17.9257 11.9411 17.929 12.9423 17.9325 13.9738 17.9374 16.0959 17.9397 18.2181 17.9396 20.3403 17.9417 23.5967 17.9596 26.8528 17.9783 30.109 17.9812 32.1662 17.9832 34.2233 17.9841 36.2803 17.9912 37.2597 17.9982 38.239 18.0055 39.248 18.0026 40.1532 17.9995 41.0584 17.9964 41.991 17.9978 42.7897 17.9992 43.5885 18.0006 44.4115 17.7568 46.3649 17.7568 46.3649 15.7838 48.3378 13.1317 48.6041 10.5639 48.4241 7.89189 48.3378 7.89189 46.7101 7.89189 45.0824 7.89189 43.4054 8.86851 42.9171 8.86851 42.9171 9.86487 42.4189 10.3275 39.641 10.3275 39.641 10.4814 36.4383 10.5552 35.3486 10.6289 34.2587 10.705 33.1359 10.7532 32.2928 10.8015 31.4497 10.8514 30.5811 9.54919 30.5811 8.24703 30.5811 6.90541 30.5811 6.90541 35.7897 6.90541 40.9984 6.90541 46.3649 1.97297 48.3378 1.97297 48.3378-0.986486 48.3378-0.660946 34.3396-0.335405 20.3414 0 5.91892 2.27878 5.91892 4.55757 5.91892 6.90541 5.91892 6.90541 7.87216 6.90541 9.82541 6.90541 11.8378 8.20757 11.8378 9.50973 11.8378 10.8514 11.8378 10.8514 9.55905 10.8514 7.28027 10.8514 4.93243 7.27041 4.93243 3.68946 4.93243 0 4.93243 0 3.30473 0 1.67703 0 0ZM6.90541 17.7568C6.90541 20.0355 6.90541 22.3143 6.90541 24.6622 8.20757 24.6622 9.50973 24.6622 10.8514 24.6622 10.8514 22.3834 10.8514 20.1046 10.8514 17.7568 9.54919 17.7568 8.24703 17.7568 6.90541 17.7568Z" fill="#1B5CB0" fill-rule="nonzero" fill-opacity="1" transform="matrix(1.01125 0 0 1 395.043 2.95946)"/><path d="M0 0C5.06063 1.39168 10.1082 3.07016 13.8108 6.90541 15.0559 10.7786 15.0293 14.4545 14.9206 18.4966 14.9076 19.5642 14.8946 20.6319 14.8811 21.7318 14.5692 28.1768 13.962 32.0391 9.125 36.4383 6.15924 38.4806 3.54394 39.7918 0 40.4459-0.718554 36.6281-0.88666 33.3952 0 29.5946 2.5273 26.6025 5.20645 24.3058 8.28495 21.8915 10.6662 19.8857 11.7421 18.6461 12.8243 15.7838 12.1732 15.5599 11.5222 15.3362 10.8514 15.1056 2.53205 11.4659 2.53205 11.4659 0 8.87838-0.67337 5.81481-0.483671 3.0834 0 0Z" fill="#1B5CB0" fill-rule="nonzero" fill-opacity="1" transform="matrix(1.01125 0 0 1 296.283 10.8514)"/><path d="M0 0C5.05763 1.39085 10.1187 3.06191 13.8108 6.90541 15.0303 10.8013 14.9827 14.5024 14.859 18.5583 14.8345 20.1646 14.8345 20.1646 14.8096 21.8034 14.5879 26.447 14.287 29.7398 11.9765 33.8219 8.34841 37.0787 4.52259 38.7269 0 40.4459-0.718554 36.6281-0.88666 33.3952 0 29.5946 2.5273 26.6025 5.20645 24.3058 8.28495 21.8915 10.6662 19.8857 11.7421 18.6461 12.8243 15.7838 12.1732 15.5396 11.5222 15.2955 10.8514 15.0439 7.13275 13.4945 3.59098 11.6908 0 9.86487 0 6.60946 0 3.35405 0 0Z" fill="#1B5CB0" fill-rule="nonzero" fill-opacity="1" transform="matrix(1.01125 0 0 1 356.138 10.8514)"/><path d="M0 0C5.47653 0.856012 9.93066 2.87601 13.8108 6.90541 14.5566 9.99932 14.3715 12.6688 13.8108 15.7838 8.9059 14.0433 4.50392 11.4493 0 8.87838 0 5.94851 0 3.01865 0 0Z" fill="#1B5CB0" fill-rule="nonzero" fill-opacity="1" transform="matrix(1.01125 0 0 1 356.138 0)"/><path d="M0 0C5.3861 0.83231 9.13309 3.19607 13.8108 5.91892 13.8108 9.17432 13.8108 12.4297 13.8108 15.7838 8.9059 14.0433 4.50392 11.4493 0 8.87838 0 5.94851 0 3.01865 0 0Z" fill="#1B5CB0" fill-rule="nonzero" fill-opacity="1" transform="matrix(1.01125 0 0 1 296.283 0)"/></g></g></svg>