<svg width="128" height="128" xmlns="http://www.w3.org/2000/svg" xmlns:xlink="http://www.w3.org/1999/xlink" xml:space="preserve" overflow="hidden"><g><g><path d="M100.1 38.3 90.9 47.5C106 62.6 106 86.9 90.9 101.8 75.8 116.9 51.5 116.9 36.6 101.8 21.5 86.7 21.5 62.4 36.6 47.5L60.6 23.5 64 20.1 64 2 27.8 38.2C7.7 58.3 7.7 90.8 27.8 111 47.9 131.2 80.4 131.1 100.2 111 120.3 90.8 120.3 58.5 100.1 38.3Z" fill="#EE4C2C" fill-rule="nonzero" fill-opacity="1"/><path d="M82.1947 22.6708C85.8943 22.7394 88.8378 25.794 88.7693 29.4935 88.7008 33.1931 85.6461 36.1366 81.9466 36.0681 78.247 35.9996 75.3035 32.945 75.372 29.2454 75.4405 25.5459 78.4951 22.6023 82.1947 22.6708Z" fill="#EE4C2C" fill-rule="nonzero" fill-opacity="1"/></g></g></svg>